STARTFONT 2.1
FONT -FontForge-Darn-Bold-R-Normal--15-110-100-100-P-68-ISO10646-1
SIZE 11 100 100
FONTBOUNDINGBOX 14 15 -6 -3
COMMENT "Generated by fontforge, http://fontforge.sourceforge.net"
COMMENT "Copyright (c) 2019, Gabriel Holodak"
STARTPROPERTIES 34
FOUNDRY "FontForge"
FAMILY_NAME "Darn"
WEIGHT_NAME "Bold"
SLANT "R"
SETWIDTH_NAME "Normal"
ADD_STYLE_NAME ""
PIXEL_SIZE 15
POINT_SIZE 110
RESOLUTION_X 100
RESOLUTION_Y 100
SPACING "P"
AVERAGE_WIDTH 68
CHARSET_REGISTRY "ISO10646"
CHARSET_ENCODING "1"
FONTNAME_REGISTRY ""
CHARSET_COLLECTIONS "ISO10646-1"
FONT_NAME "DarnBold"
FACE_NAME "Darn Bold"
COPYRIGHT "Copyright (c) 2019, Gabriel Holodak"
FONT_VERSION "000.100"
FONT_ASCENT 12
FONT_DESCENT 3
UNDERLINE_POSITION -2
UNDERLINE_THICKNESS 1
X_HEIGHT 6
CAP_HEIGHT 8
RAW_ASCENT 800
RAW_DESCENT 200
NORM_SPACE 7
RELATIVE_WEIGHT 70
RELATIVE_SETWIDTH 50
FIGURE_WIDTH 7
AVG_LOWERCASE_WIDTH 70
AVG_UPPERCASE_WIDTH 70
ENDPROPERTIES
CHARS 293
STARTCHAR space
ENCODING 32
SWIDTH 500 0
DWIDTH 7 0
BBX 1 1 4 0
BITMAP
00
ENDCHAR
STARTCHAR exclam
ENCODING 33
SWIDTH 500 0
DWIDTH 7 0
BBX 2 9 3 0
BITMAP
C0
C0
C0
C0
C0
C0
00
C0
C0
ENDCHAR
STARTCHAR quotedbl
ENCODING 34
SWIDTH 500 0
DWIDTH 7 0
BBX 5 3 1 7
BITMAP
D8
D8
D8
ENDCHAR
STARTCHAR numbersign
ENCODING 35
SWIDTH 500 0
DWIDTH 7 0
BBX 7 9 0 0
BITMAP
6C
6C
FE
6C
6C
6C
FE
6C
6C
ENDCHAR
STARTCHAR dollar
ENCODING 36
SWIDTH 500 0
DWIDTH 7 0
BBX 6 11 1 -1
BITMAP
30
78
FC
B0
F0
78
3C
34
FC
78
30
ENDCHAR
STARTCHAR percent
ENCODING 37
SWIDTH 500 0
DWIDTH 7 0
BBX 6 9 1 0
BITMAP
44
AC
B8
58
30
68
74
D4
88
ENDCHAR
STARTCHAR ampersand
ENCODING 38
SWIDTH 500 0
DWIDTH 7 0
BBX 6 9 1 0
BITMAP
30
68
68
30
70
D4
CC
D8
74
ENDCHAR
STARTCHAR quotesingle
ENCODING 39
SWIDTH 500 0
DWIDTH 7 0
BBX 2 3 3 7
BITMAP
C0
C0
C0
ENDCHAR
STARTCHAR parenleft
ENCODING 40
SWIDTH 500 0
DWIDTH 7 0
BBX 4 11 2 -1
BITMAP
30
60
60
C0
C0
C0
C0
C0
60
60
30
ENDCHAR
STARTCHAR parenright
ENCODING 41
SWIDTH 500 0
DWIDTH 7 0
BBX 4 11 2 -1
BITMAP
C0
60
60
30
30
30
30
30
60
60
C0
ENDCHAR
STARTCHAR asterisk
ENCODING 42
SWIDTH 500 0
DWIDTH 7 0
BBX 6 5 1 2
BITMAP
30
B4
78
B4
30
ENDCHAR
STARTCHAR plus
ENCODING 43
SWIDTH 500 0
DWIDTH 7 0
BBX 6 5 1 2
BITMAP
30
30
FC
30
30
ENDCHAR
STARTCHAR comma
ENCODING 44
SWIDTH 500 0
DWIDTH 7 0
BBX 3 4 2 -2
BITMAP
60
60
60
C0
ENDCHAR
STARTCHAR hyphen
ENCODING 45
SWIDTH 500 0
DWIDTH 7 0
BBX 4 1 2 4
BITMAP
F0
ENDCHAR
STARTCHAR period
ENCODING 46
SWIDTH 500 0
DWIDTH 7 0
BBX 2 2 3 0
BITMAP
C0
C0
ENDCHAR
STARTCHAR slash
ENCODING 47
SWIDTH 500 0
DWIDTH 7 0
BBX 6 10 1 0
BITMAP
0C
0C
18
18
30
30
60
60
C0
C0
ENDCHAR
STARTCHAR zero
ENCODING 48
SWIDTH 500 0
DWIDTH 7 0
BBX 6 9 1 0
BITMAP
78
CC
CC
DC
FC
EC
CC
CC
78
ENDCHAR
STARTCHAR one
ENCODING 49
SWIDTH 500 0
DWIDTH 7 0
BBX 6 9 1 0
BITMAP
30
70
F0
30
30
30
30
30
FC
ENDCHAR
STARTCHAR two
ENCODING 50
SWIDTH 500 0
DWIDTH 7 0
BBX 6 9 1 0
BITMAP
78
CC
0C
18
30
60
C0
C0
FC
ENDCHAR
STARTCHAR three
ENCODING 51
SWIDTH 500 0
DWIDTH 7 0
BBX 6 9 1 0
BITMAP
78
CC
0C
0C
38
0C
0C
CC
78
ENDCHAR
STARTCHAR four
ENCODING 52
SWIDTH 500 0
DWIDTH 7 0
BBX 6 9 1 0
BITMAP
0C
1C
3C
6C
CC
FC
0C
0C
0C
ENDCHAR
STARTCHAR five
ENCODING 53
SWIDTH 500 0
DWIDTH 7 0
BBX 6 9 1 0
BITMAP
FC
C0
C0
C0
F8
0C
0C
CC
78
ENDCHAR
STARTCHAR six
ENCODING 54
SWIDTH 500 0
DWIDTH 7 0
BBX 6 9 1 0
BITMAP
78
CC
C0
C0
F8
CC
CC
CC
78
ENDCHAR
STARTCHAR seven
ENCODING 55
SWIDTH 500 0
DWIDTH 7 0
BBX 6 9 1 0
BITMAP
FC
0C
0C
18
18
30
30
30
30
ENDCHAR
STARTCHAR eight
ENCODING 56
SWIDTH 500 0
DWIDTH 7 0
BBX 6 9 1 0
BITMAP
78
CC
CC
CC
78
CC
CC
CC
78
ENDCHAR
STARTCHAR nine
ENCODING 57
SWIDTH 500 0
DWIDTH 7 0
BBX 6 9 1 0
BITMAP
78
CC
CC
CC
7C
0C
0C
CC
78
ENDCHAR
STARTCHAR colon
ENCODING 58
SWIDTH 500 0
DWIDTH 7 0
BBX 2 6 3 1
BITMAP
C0
C0
00
00
C0
C0
ENDCHAR
STARTCHAR semicolon
ENCODING 59
SWIDTH 500 0
DWIDTH 7 0
BBX 3 9 2 -2
BITMAP
60
60
00
00
00
60
60
60
C0
ENDCHAR
STARTCHAR less
ENCODING 60
SWIDTH 500 0
DWIDTH 7 0
BBX 6 9 1 0
BITMAP
0C
18
30
60
C0
60
30
18
0C
ENDCHAR
STARTCHAR equal
ENCODING 61
SWIDTH 500 0
DWIDTH 7 0
BBX 5 5 1 2
BITMAP
F8
00
00
00
F8
ENDCHAR
STARTCHAR greater
ENCODING 62
SWIDTH 500 0
DWIDTH 7 0
BBX 6 9 1 0
BITMAP
C0
60
30
18
0C
18
30
60
C0
ENDCHAR
STARTCHAR question
ENCODING 63
SWIDTH 500 0
DWIDTH 7 0
BBX 6 9 1 0
BITMAP
78
CC
CC
18
30
30
00
30
30
ENDCHAR
STARTCHAR at
ENCODING 64
SWIDTH 500 0
DWIDTH 7 0
BBX 6 9 1 0
BITMAP
78
CC
DC
D4
D4
D4
DC
C0
7C
ENDCHAR
STARTCHAR A
ENCODING 65
SWIDTH 500 0
DWIDTH 7 0
BBX 6 9 1 0
BITMAP
30
30
78
78
CC
FC
CC
CC
CC
ENDCHAR
STARTCHAR B
ENCODING 66
SWIDTH 500 0
DWIDTH 7 0
BBX 6 9 1 0
BITMAP
F8
CC
CC
CC
F8
CC
CC
CC
F8
ENDCHAR
STARTCHAR C
ENCODING 67
SWIDTH 500 0
DWIDTH 7 0
BBX 6 9 1 0
BITMAP
78
CC
C0
C0
C0
C0
C0
CC
78
ENDCHAR
STARTCHAR D
ENCODING 68
SWIDTH 500 0
DWIDTH 7 0
BBX 6 9 1 0
BITMAP
F0
D8
CC
CC
CC
CC
CC
D8
F0
ENDCHAR
STARTCHAR E
ENCODING 69
SWIDTH 500 0
DWIDTH 7 0
BBX 6 9 1 0
BITMAP
FC
C0
C0
C0
F8
C0
C0
C0
FC
ENDCHAR
STARTCHAR F
ENCODING 70
SWIDTH 500 0
DWIDTH 7 0
BBX 6 9 1 0
BITMAP
FC
C0
C0
C0
F8
C0
C0
C0
C0
ENDCHAR
STARTCHAR G
ENCODING 71
SWIDTH 500 0
DWIDTH 7 0
BBX 6 9 1 0
BITMAP
78
CC
C0
C0
DC
CC
CC
DC
74
ENDCHAR
STARTCHAR H
ENCODING 72
SWIDTH 500 0
DWIDTH 7 0
BBX 6 9 1 0
BITMAP
CC
CC
CC
CC
FC
CC
CC
CC
CC
ENDCHAR
STARTCHAR I
ENCODING 73
SWIDTH 500 0
DWIDTH 7 0
BBX 6 9 1 0
BITMAP
FC
30
30
30
30
30
30
30
FC
ENDCHAR
STARTCHAR J
ENCODING 74
SWIDTH 500 0
DWIDTH 7 0
BBX 6 9 1 0
BITMAP
3C
0C
0C
0C
0C
0C
CC
CC
78
ENDCHAR
STARTCHAR K
ENCODING 75
SWIDTH 500 0
DWIDTH 7 0
BBX 6 9 1 0
BITMAP
CC
CC
D8
F0
E0
F0
D8
CC
CC
ENDCHAR
STARTCHAR L
ENCODING 76
SWIDTH 500 0
DWIDTH 7 0
BBX 6 9 1 0
BITMAP
C0
C0
C0
C0
C0
C0
C0
C0
FC
ENDCHAR
STARTCHAR M
ENCODING 77
SWIDTH 500 0
DWIDTH 7 0
BBX 6 9 1 0
BITMAP
84
CC
FC
FC
FC
CC
CC
CC
CC
ENDCHAR
STARTCHAR N
ENCODING 78
SWIDTH 500 0
DWIDTH 7 0
BBX 6 9 1 0
BITMAP
CC
CC
EC
EC
FC
DC
DC
CC
CC
ENDCHAR
STARTCHAR O
ENCODING 79
SWIDTH 500 0
DWIDTH 7 0
BBX 6 9 1 0
BITMAP
78
CC
CC
CC
CC
CC
CC
CC
78
ENDCHAR
STARTCHAR P
ENCODING 80
SWIDTH 500 0
DWIDTH 7 0
BBX 6 9 1 0
BITMAP
F8
CC
CC
CC
F8
C0
C0
C0
C0
ENDCHAR
STARTCHAR Q
ENCODING 81
SWIDTH 500 0
DWIDTH 7 0
BBX 6 10 1 -1
BITMAP
78
CC
CC
CC
CC
CC
EC
DC
78
0C
ENDCHAR
STARTCHAR R
ENCODING 82
SWIDTH 500 0
DWIDTH 7 0
BBX 6 9 1 0
BITMAP
F8
CC
CC
CC
F8
D8
D8
CC
CC
ENDCHAR
STARTCHAR S
ENCODING 83
SWIDTH 500 0
DWIDTH 7 0
BBX 6 9 1 0
BITMAP
78
CC
C0
C0
78
0C
0C
CC
78
ENDCHAR
STARTCHAR T
ENCODING 84
SWIDTH 500 0
DWIDTH 7 0
BBX 6 9 1 0
BITMAP
FC
30
30
30
30
30
30
30
30
ENDCHAR
STARTCHAR U
ENCODING 85
SWIDTH 500 0
DWIDTH 7 0
BBX 6 9 1 0
BITMAP
CC
CC
CC
CC
CC
CC
CC
CC
78
ENDCHAR
STARTCHAR V
ENCODING 86
SWIDTH 500 0
DWIDTH 7 0
BBX 6 9 1 0
BITMAP
CC
CC
CC
CC
CC
78
78
30
30
ENDCHAR
STARTCHAR W
ENCODING 87
SWIDTH 500 0
DWIDTH 7 0
BBX 6 9 1 0
BITMAP
CC
CC
CC
CC
FC
FC
FC
CC
84
ENDCHAR
STARTCHAR X
ENCODING 88
SWIDTH 500 0
DWIDTH 7 0
BBX 6 9 1 0
BITMAP
CC
CC
CC
78
30
78
CC
CC
CC
ENDCHAR
STARTCHAR Y
ENCODING 89
SWIDTH 500 0
DWIDTH 7 0
BBX 6 9 1 0
BITMAP
CC
CC
CC
78
30
30
30
30
30
ENDCHAR
STARTCHAR Z
ENCODING 90
SWIDTH 500 0
DWIDTH 7 0
BBX 6 9 1 0
BITMAP
FC
0C
18
18
30
60
60
C0
FC
ENDCHAR
STARTCHAR bracketleft
ENCODING 91
SWIDTH 500 0
DWIDTH 7 0
BBX 4 11 2 -1
BITMAP
F0
C0
C0
C0
C0
C0
C0
C0
C0
C0
F0
ENDCHAR
STARTCHAR backslash
ENCODING 92
SWIDTH 500 0
DWIDTH 7 0
BBX 6 10 1 0
BITMAP
C0
C0
60
60
30
30
18
18
0C
0C
ENDCHAR
STARTCHAR bracketright
ENCODING 93
SWIDTH 500 0
DWIDTH 7 0
BBX 4 11 2 -1
BITMAP
F0
30
30
30
30
30
30
30
30
30
F0
ENDCHAR
STARTCHAR asciicircum
ENCODING 94
SWIDTH 500 0
DWIDTH 7 0
BBX 6 3 1 7
BITMAP
30
78
CC
ENDCHAR
STARTCHAR underscore
ENCODING 95
SWIDTH 500 0
DWIDTH 7 0
BBX 6 1 1 -1
BITMAP
FC
ENDCHAR
STARTCHAR grave
ENCODING 96
SWIDTH 500 0
DWIDTH 7 0
BBX 4 3 2 7
BITMAP
C0
60
30
ENDCHAR
STARTCHAR a
ENCODING 97
SWIDTH 500 0
DWIDTH 7 0
BBX 6 7 1 0
BITMAP
78
0C
0C
7C
CC
CC
7C
ENDCHAR
STARTCHAR b
ENCODING 98
SWIDTH 500 0
DWIDTH 7 0
BBX 6 10 1 0
BITMAP
C0
C0
C0
F8
CC
CC
CC
CC
CC
F8
ENDCHAR
STARTCHAR c
ENCODING 99
SWIDTH 500 0
DWIDTH 7 0
BBX 6 7 1 0
BITMAP
78
CC
C0
C0
C0
CC
78
ENDCHAR
STARTCHAR d
ENCODING 100
SWIDTH 500 0
DWIDTH 7 0
BBX 6 10 1 0
BITMAP
0C
0C
0C
7C
CC
CC
CC
CC
CC
7C
ENDCHAR
STARTCHAR e
ENCODING 101
SWIDTH 500 0
DWIDTH 7 0
BBX 6 7 1 0
BITMAP
78
CC
CC
FC
C0
CC
78
ENDCHAR
STARTCHAR f
ENCODING 102
SWIDTH 500 0
DWIDTH 7 0
BBX 6 10 1 0
BITMAP
3C
60
60
F8
60
60
60
60
60
60
ENDCHAR
STARTCHAR g
ENCODING 103
SWIDTH 500 0
DWIDTH 7 0
BBX 6 10 1 -3
BITMAP
7C
CC
CC
CC
CC
CC
7C
0C
0C
78
ENDCHAR
STARTCHAR h
ENCODING 104
SWIDTH 500 0
DWIDTH 7 0
BBX 6 10 1 0
BITMAP
C0
C0
C0
F8
CC
CC
CC
CC
CC
CC
ENDCHAR
STARTCHAR i
ENCODING 105
SWIDTH 500 0
DWIDTH 7 0
BBX 4 10 2 0
BITMAP
60
60
00
E0
60
60
60
60
60
70
ENDCHAR
STARTCHAR j
ENCODING 106
SWIDTH 500 0
DWIDTH 7 0
BBX 5 12 1 -2
BITMAP
18
18
00
38
18
18
18
18
18
18
18
F0
ENDCHAR
STARTCHAR k
ENCODING 107
SWIDTH 500 0
DWIDTH 7 0
BBX 6 10 1 0
BITMAP
C0
C0
C0
CC
D8
F0
E0
F0
D8
CC
ENDCHAR
STARTCHAR l
ENCODING 108
SWIDTH 500 0
DWIDTH 7 0
BBX 4 10 2 0
BITMAP
E0
60
60
60
60
60
60
60
60
70
ENDCHAR
STARTCHAR m
ENCODING 109
SWIDTH 500 0
DWIDTH 7 0
BBX 6 7 1 0
BITMAP
E8
FC
D4
D4
D4
D4
D4
ENDCHAR
STARTCHAR n
ENCODING 110
SWIDTH 500 0
DWIDTH 7 0
BBX 6 7 1 0
BITMAP
F8
CC
CC
CC
CC
CC
CC
ENDCHAR
STARTCHAR o
ENCODING 111
SWIDTH 500 0
DWIDTH 7 0
BBX 6 7 1 0
BITMAP
78
CC
CC
CC
CC
CC
78
ENDCHAR
STARTCHAR p
ENCODING 112
SWIDTH 500 0
DWIDTH 7 0
BBX 6 10 1 -3
BITMAP
F8
CC
CC
CC
CC
CC
F8
C0
C0
C0
ENDCHAR
STARTCHAR q
ENCODING 113
SWIDTH 500 0
DWIDTH 7 0
BBX 6 10 1 -3
BITMAP
7C
CC
CC
CC
CC
CC
7C
0C
0C
0C
ENDCHAR
STARTCHAR r
ENCODING 114
SWIDTH 500 0
DWIDTH 7 0
BBX 6 7 1 0
BITMAP
D8
EC
CC
C0
C0
C0
C0
ENDCHAR
STARTCHAR s
ENCODING 115
SWIDTH 500 0
DWIDTH 7 0
BBX 6 7 1 0
BITMAP
78
CC
C0
78
0C
CC
78
ENDCHAR
STARTCHAR t
ENCODING 116
SWIDTH 500 0
DWIDTH 7 0
BBX 6 10 1 0
BITMAP
60
60
60
F8
60
60
60
60
60
3C
ENDCHAR
STARTCHAR u
ENCODING 117
SWIDTH 500 0
DWIDTH 7 0
BBX 6 7 1 0
BITMAP
CC
CC
CC
CC
CC
CC
7C
ENDCHAR
STARTCHAR v
ENCODING 118
SWIDTH 500 0
DWIDTH 7 0
BBX 6 7 1 0
BITMAP
CC
CC
CC
78
78
30
30
ENDCHAR
STARTCHAR w
ENCODING 119
SWIDTH 500 0
DWIDTH 7 0
BBX 6 7 1 0
BITMAP
C4
C4
C4
D4
D4
78
68
ENDCHAR
STARTCHAR x
ENCODING 120
SWIDTH 500 0
DWIDTH 7 0
BBX 6 7 1 0
BITMAP
CC
CC
78
30
78
CC
CC
ENDCHAR
STARTCHAR y
ENCODING 121
SWIDTH 500 0
DWIDTH 7 0
BBX 6 10 1 -3
BITMAP
CC
CC
CC
CC
CC
CC
7C
0C
0C
78
ENDCHAR
STARTCHAR z
ENCODING 122
SWIDTH 500 0
DWIDTH 7 0
BBX 6 7 1 0
BITMAP
FC
0C
18
30
60
C0
FC
ENDCHAR
STARTCHAR braceleft
ENCODING 123
SWIDTH 500 0
DWIDTH 7 0
BBX 5 11 2 -1
BITMAP
38
60
60
30
30
E0
30
30
60
60
38
ENDCHAR
STARTCHAR bar
ENCODING 124
SWIDTH 500 0
DWIDTH 7 0
BBX 2 12 3 -1
BITMAP
C0
C0
C0
C0
C0
C0
C0
C0
C0
C0
C0
C0
ENDCHAR
STARTCHAR braceright
ENCODING 125
SWIDTH 500 0
DWIDTH 7 0
BBX 5 11 1 -1
BITMAP
E0
30
30
60
60
38
60
60
30
30
E0
ENDCHAR
STARTCHAR asciitilde
ENCODING 126
SWIDTH 500 0
DWIDTH 7 0
BBX 6 3 1 3
BITMAP
6C
FC
D8
ENDCHAR
STARTCHAR uni00A0
ENCODING 160
SWIDTH 466 0
DWIDTH 7 0
BBX 1 1 7 0
BITMAP
00
ENDCHAR
STARTCHAR exclamdown
ENCODING 161
SWIDTH 466 0
DWIDTH 7 0
BBX 2 9 3 -2
BITMAP
C0
C0
00
C0
C0
C0
C0
C0
C0
ENDCHAR
STARTCHAR cent
ENCODING 162
SWIDTH 500 0
DWIDTH 7 0
BBX 6 9 1 -1
BITMAP
10
78
D4
D0
D0
D0
D4
78
10
ENDCHAR
STARTCHAR sterling
ENCODING 163
SWIDTH 466 0
DWIDTH 7 0
BBX 6 9 1 0
BITMAP
38
6C
60
60
F8
60
60
C0
FC
ENDCHAR
STARTCHAR currency
ENCODING 164
SWIDTH 466 0
DWIDTH 7 0
BBX 7 6 0 1
BITMAP
BA
6C
44
44
6C
BA
ENDCHAR
STARTCHAR yen
ENCODING 165
SWIDTH 466 0
DWIDTH 7 0
BBX 6 9 1 0
BITMAP
CC
CC
CC
78
FC
30
FC
30
30
ENDCHAR
STARTCHAR brokenbar
ENCODING 166
SWIDTH 466 0
DWIDTH 7 0
BBX 2 11 3 -1
BITMAP
C0
C0
C0
C0
C0
00
C0
C0
C0
C0
C0
ENDCHAR
STARTCHAR section
ENCODING 167
SWIDTH 466 0
DWIDTH 7 0
BBX 6 11 1 -2
BITMAP
78
CC
C0
60
D8
CC
6C
18
0C
CC
78
ENDCHAR
STARTCHAR dieresis
ENCODING 168
SWIDTH 466 0
DWIDTH 7 0
BBX 4 2 2 10
BITMAP
90
90
ENDCHAR
STARTCHAR copyright
ENCODING 169
SWIDTH 466 0
DWIDTH 7 0
BBX 7 9 0 0
BITMAP
38
6C
D6
AA
A2
AA
D6
6C
38
ENDCHAR
STARTCHAR ordfeminine
ENCODING 170
SWIDTH 466 0
DWIDTH 7 0
BBX 5 7 2 2
BITMAP
70
18
78
D8
78
00
F8
ENDCHAR
STARTCHAR guillemotleft
ENCODING 171
SWIDTH 500 0
DWIDTH 7 0
BBX 6 5 1 1
BITMAP
34
68
D0
68
34
ENDCHAR
STARTCHAR logicalnot
ENCODING 172
SWIDTH 466 0
DWIDTH 7 0
BBX 6 3 1 2
BITMAP
FC
0C
0C
ENDCHAR
STARTCHAR uni00AD
ENCODING 173
SWIDTH 500 0
DWIDTH 7 0
BBX 4 1 2 4
BITMAP
F0
ENDCHAR
STARTCHAR registered
ENCODING 174
SWIDTH 466 0
DWIDTH 7 0
BBX 7 9 0 0
BITMAP
38
44
F6
AA
B2
AA
EE
44
38
ENDCHAR
STARTCHAR macron
ENCODING 175
SWIDTH 466 0
DWIDTH 7 0
BBX 4 1 2 10
BITMAP
F0
ENDCHAR
STARTCHAR degree
ENCODING 176
SWIDTH 466 0
DWIDTH 7 0
BBX 5 4 1 6
BITMAP
70
D8
D8
70
ENDCHAR
STARTCHAR plusminus
ENCODING 177
SWIDTH 466 0
DWIDTH 7 0
BBX 6 7 1 0
BITMAP
30
30
FC
30
30
00
FC
ENDCHAR
STARTCHAR uni00B2
ENCODING 178
SWIDTH 466 0
DWIDTH 7 0
BBX 5 5 2 5
BITMAP
70
D8
30
60
F8
ENDCHAR
STARTCHAR uni00B3
ENCODING 179
SWIDTH 466 0
DWIDTH 7 0
BBX 5 5 2 5
BITMAP
F0
18
70
18
F0
ENDCHAR
STARTCHAR acute
ENCODING 180
SWIDTH 466 0
DWIDTH 7 0
BBX 3 2 3 10
BITMAP
60
C0
ENDCHAR
STARTCHAR mu
ENCODING 181
SWIDTH 466 0
DWIDTH 7 0
BBX 6 10 1 -3
BITMAP
CC
CC
CC
CC
CC
CC
FC
C0
C0
C0
ENDCHAR
STARTCHAR paragraph
ENCODING 182
SWIDTH 466 0
DWIDTH 7 0
BBX 6 11 1 -2
BITMAP
7C
F4
F4
F4
74
34
34
34
34
34
34
ENDCHAR
STARTCHAR periodcentered
ENCODING 183
SWIDTH 466 0
DWIDTH 7 0
BBX 2 2 3 3
BITMAP
C0
C0
ENDCHAR
STARTCHAR cedilla
ENCODING 184
SWIDTH 466 0
DWIDTH 7 0
BBX 4 3 2 -3
BITMAP
60
30
E0
ENDCHAR
STARTCHAR uni00B9
ENCODING 185
SWIDTH 466 0
DWIDTH 7 0
BBX 4 5 2 5
BITMAP
60
E0
60
60
F0
ENDCHAR
STARTCHAR ordmasculine
ENCODING 186
SWIDTH 466 0
DWIDTH 7 0
BBX 5 7 2 2
BITMAP
70
D8
D8
D8
70
00
F8
ENDCHAR
STARTCHAR guillemotright
ENCODING 187
SWIDTH 500 0
DWIDTH 7 0
BBX 6 5 1 1
BITMAP
B0
58
2C
58
B0
ENDCHAR
STARTCHAR onequarter
ENCODING 188
SWIDTH 466 0
DWIDTH 7 0
BBX 6 10 1 0
BITMAP
60
E0
60
68
F0
2C
5C
AC
3C
0C
ENDCHAR
STARTCHAR onehalf
ENCODING 189
SWIDTH 466 0
DWIDTH 7 0
BBX 6 10 1 0
BITMAP
60
E0
60
68
F0
28
54
8C
18
1C
ENDCHAR
STARTCHAR threequarters
ENCODING 190
SWIDTH 466 0
DWIDTH 7 0
BBX 6 10 1 0
BITMAP
E0
30
60
38
F0
2C
5C
AC
3C
0C
ENDCHAR
STARTCHAR questiondown
ENCODING 191
SWIDTH 466 0
DWIDTH 7 0
BBX 6 9 1 -2
BITMAP
30
30
00
30
30
60
CC
CC
78
ENDCHAR
STARTCHAR Agrave
ENCODING 192
SWIDTH 500 0
DWIDTH 7 0
BBX 6 12 1 0
BITMAP
60
30
00
30
30
78
78
CC
FC
CC
CC
CC
ENDCHAR
STARTCHAR Aacute
ENCODING 193
SWIDTH 500 0
DWIDTH 7 0
BBX 6 12 1 0
BITMAP
18
30
00
30
30
78
78
CC
FC
CC
CC
CC
ENDCHAR
STARTCHAR Acircumflex
ENCODING 194
SWIDTH 500 0
DWIDTH 7 0
BBX 6 12 1 0
BITMAP
30
48
00
30
30
78
78
CC
FC
CC
CC
CC
ENDCHAR
STARTCHAR Atilde
ENCODING 195
SWIDTH 500 0
DWIDTH 7 0
BBX 6 12 1 0
BITMAP
6C
D8
00
30
30
78
78
CC
FC
CC
CC
CC
ENDCHAR
STARTCHAR Adieresis
ENCODING 196
SWIDTH 500 0
DWIDTH 7 0
BBX 6 12 1 0
BITMAP
48
48
00
30
30
78
78
CC
FC
CC
CC
CC
ENDCHAR
STARTCHAR Aring
ENCODING 197
SWIDTH 500 0
DWIDTH 7 0
BBX 6 12 1 0
BITMAP
30
48
48
30
30
78
78
CC
FC
CC
CC
CC
ENDCHAR
STARTCHAR AE
ENCODING 198
SWIDTH 466 0
DWIDTH 7 0
BBX 6 9 1 0
BITMAP
3C
70
70
F0
BC
F0
B0
B0
BC
ENDCHAR
STARTCHAR Ccedilla
ENCODING 199
SWIDTH 500 0
DWIDTH 7 0
BBX 6 12 1 -3
BITMAP
78
CC
C0
C0
C0
C0
C0
CC
78
30
18
70
ENDCHAR
STARTCHAR Egrave
ENCODING 200
SWIDTH 500 0
DWIDTH 7 0
BBX 6 12 1 0
BITMAP
60
30
00
FC
C0
C0
C0
F8
C0
C0
C0
FC
ENDCHAR
STARTCHAR Eacute
ENCODING 201
SWIDTH 500 0
DWIDTH 7 0
BBX 6 12 1 0
BITMAP
18
30
00
FC
C0
C0
C0
F8
C0
C0
C0
FC
ENDCHAR
STARTCHAR Ecircumflex
ENCODING 202
SWIDTH 500 0
DWIDTH 7 0
BBX 6 12 1 0
BITMAP
30
48
00
FC
C0
C0
C0
F8
C0
C0
C0
FC
ENDCHAR
STARTCHAR Edieresis
ENCODING 203
SWIDTH 500 0
DWIDTH 7 0
BBX 6 12 1 0
BITMAP
48
48
00
FC
C0
C0
C0
F8
C0
C0
C0
FC
ENDCHAR
STARTCHAR Igrave
ENCODING 204
SWIDTH 500 0
DWIDTH 7 0
BBX 6 12 1 0
BITMAP
60
30
00
FC
30
30
30
30
30
30
30
FC
ENDCHAR
STARTCHAR Iacute
ENCODING 205
SWIDTH 500 0
DWIDTH 7 0
BBX 6 12 1 0
BITMAP
18
30
00
FC
30
30
30
30
30
30
30
FC
ENDCHAR
STARTCHAR Icircumflex
ENCODING 206
SWIDTH 500 0
DWIDTH 7 0
BBX 6 12 1 0
BITMAP
30
48
00
FC
30
30
30
30
30
30
30
FC
ENDCHAR
STARTCHAR Idieresis
ENCODING 207
SWIDTH 500 0
DWIDTH 7 0
BBX 6 12 1 0
BITMAP
48
48
00
FC
30
30
30
30
30
30
30
FC
ENDCHAR
STARTCHAR Eth
ENCODING 208
SWIDTH 500 0
DWIDTH 7 0
BBX 7 9 0 0
BITMAP
78
6C
66
66
F6
66
66
6C
78
ENDCHAR
STARTCHAR Ntilde
ENCODING 209
SWIDTH 500 0
DWIDTH 7 0
BBX 6 12 1 0
BITMAP
6C
D8
00
CC
CC
EC
EC
FC
DC
DC
CC
CC
ENDCHAR
STARTCHAR Ograve
ENCODING 210
SWIDTH 500 0
DWIDTH 7 0
BBX 6 12 1 0
BITMAP
60
30
00
78
CC
CC
CC
CC
CC
CC
CC
78
ENDCHAR
STARTCHAR Oacute
ENCODING 211
SWIDTH 500 0
DWIDTH 7 0
BBX 6 12 1 0
BITMAP
18
30
00
78
CC
CC
CC
CC
CC
CC
CC
78
ENDCHAR
STARTCHAR Ocircumflex
ENCODING 212
SWIDTH 500 0
DWIDTH 7 0
BBX 6 12 1 0
BITMAP
30
48
00
78
CC
CC
CC
CC
CC
CC
CC
78
ENDCHAR
STARTCHAR Otilde
ENCODING 213
SWIDTH 500 0
DWIDTH 7 0
BBX 6 12 1 0
BITMAP
6C
D8
00
78
CC
CC
CC
CC
CC
CC
CC
78
ENDCHAR
STARTCHAR Odieresis
ENCODING 214
SWIDTH 500 0
DWIDTH 7 0
BBX 6 12 1 0
BITMAP
48
48
00
78
CC
CC
CC
CC
CC
CC
CC
78
ENDCHAR
STARTCHAR multiply
ENCODING 215
SWIDTH 466 0
DWIDTH 7 0
BBX 6 5 1 2
BITMAP
CC
78
30
78
CC
ENDCHAR
STARTCHAR Oslash
ENCODING 216
SWIDTH 466 0
DWIDTH 7 0
BBX 6 11 1 -1
BITMAP
04
7C
C8
DC
DC
FC
EC
EC
4C
F8
80
ENDCHAR
STARTCHAR Ugrave
ENCODING 217
SWIDTH 500 0
DWIDTH 7 0
BBX 6 12 1 0
BITMAP
60
30
00
CC
CC
CC
CC
CC
CC
CC
CC
78
ENDCHAR
STARTCHAR Uacute
ENCODING 218
SWIDTH 500 0
DWIDTH 7 0
BBX 6 12 1 0
BITMAP
18
30
00
CC
CC
CC
CC
CC
CC
CC
CC
78
ENDCHAR
STARTCHAR Ucircumflex
ENCODING 219
SWIDTH 500 0
DWIDTH 7 0
BBX 6 12 1 0
BITMAP
30
48
00
CC
CC
CC
CC
CC
CC
CC
CC
78
ENDCHAR
STARTCHAR Udieresis
ENCODING 220
SWIDTH 500 0
DWIDTH 7 0
BBX 6 12 1 0
BITMAP
48
48
00
CC
CC
CC
CC
CC
CC
CC
CC
78
ENDCHAR
STARTCHAR Yacute
ENCODING 221
SWIDTH 500 0
DWIDTH 7 0
BBX 6 12 1 0
BITMAP
18
30
00
CC
CC
CC
78
30
30
30
30
30
ENDCHAR
STARTCHAR Thorn
ENCODING 222
SWIDTH 466 0
DWIDTH 7 0
BBX 6 9 1 0
BITMAP
C0
C0
F8
CC
CC
CC
F8
C0
C0
ENDCHAR
STARTCHAR germandbls
ENCODING 223
SWIDTH 466 0
DWIDTH 7 0
BBX 6 9 1 0
BITMAP
70
D8
D8
F0
F0
D8
CC
CC
F8
ENDCHAR
STARTCHAR agrave
ENCODING 224
SWIDTH 500 0
DWIDTH 7 0
BBX 6 10 1 0
BITMAP
60
30
00
78
0C
0C
7C
CC
CC
7C
ENDCHAR
STARTCHAR aacute
ENCODING 225
SWIDTH 500 0
DWIDTH 7 0
BBX 6 10 1 0
BITMAP
18
30
00
78
0C
0C
7C
CC
CC
7C
ENDCHAR
STARTCHAR acircumflex
ENCODING 226
SWIDTH 500 0
DWIDTH 7 0
BBX 6 10 1 0
BITMAP
30
48
00
78
0C
0C
7C
CC
CC
7C
ENDCHAR
STARTCHAR atilde
ENCODING 227
SWIDTH 500 0
DWIDTH 7 0
BBX 6 10 1 0
BITMAP
6C
D8
00
78
0C
0C
7C
CC
CC
7C
ENDCHAR
STARTCHAR adieresis
ENCODING 228
SWIDTH 500 0
DWIDTH 7 0
BBX 6 10 1 0
BITMAP
48
48
00
78
0C
0C
7C
CC
CC
7C
ENDCHAR
STARTCHAR aring
ENCODING 229
SWIDTH 500 0
DWIDTH 7 0
BBX 6 11 1 0
BITMAP
30
48
48
30
78
0C
0C
7C
CC
CC
7C
ENDCHAR
STARTCHAR ae
ENCODING 230
SWIDTH 466 0
DWIDTH 7 0
BBX 6 7 1 0
BITMAP
78
B4
34
7C
B0
B4
48
ENDCHAR
STARTCHAR ccedilla
ENCODING 231
SWIDTH 500 0
DWIDTH 7 0
BBX 6 10 1 -3
BITMAP
78
CC
C0
C0
C0
CC
78
30
18
70
ENDCHAR
STARTCHAR egrave
ENCODING 232
SWIDTH 500 0
DWIDTH 7 0
BBX 6 10 1 0
BITMAP
60
30
00
78
CC
CC
FC
C0
CC
78
ENDCHAR
STARTCHAR eacute
ENCODING 233
SWIDTH 500 0
DWIDTH 7 0
BBX 6 10 1 0
BITMAP
18
30
00
78
CC
CC
FC
C0
CC
78
ENDCHAR
STARTCHAR ecircumflex
ENCODING 234
SWIDTH 500 0
DWIDTH 7 0
BBX 6 10 1 0
BITMAP
30
48
00
78
CC
CC
FC
C0
CC
78
ENDCHAR
STARTCHAR edieresis
ENCODING 235
SWIDTH 500 0
DWIDTH 7 0
BBX 6 10 1 0
BITMAP
48
48
00
78
CC
CC
FC
C0
CC
78
ENDCHAR
STARTCHAR igrave
ENCODING 236
SWIDTH 466 0
DWIDTH 7 0
BBX 4 10 2 0
BITMAP
C0
60
00
E0
60
60
60
60
60
70
ENDCHAR
STARTCHAR iacute
ENCODING 237
SWIDTH 466 0
DWIDTH 7 0
BBX 4 10 2 0
BITMAP
30
60
00
E0
60
60
60
60
60
70
ENDCHAR
STARTCHAR icircumflex
ENCODING 238
SWIDTH 466 0
DWIDTH 7 0
BBX 4 10 2 0
BITMAP
60
90
00
E0
60
60
60
60
60
70
ENDCHAR
STARTCHAR idieresis
ENCODING 239
SWIDTH 466 0
DWIDTH 7 0
BBX 4 10 2 0
BITMAP
90
90
00
E0
60
60
60
60
60
70
ENDCHAR
STARTCHAR eth
ENCODING 240
SWIDTH 466 0
DWIDTH 7 0
BBX 6 10 1 0
BITMAP
6C
38
68
0C
7C
CC
CC
CC
CC
78
ENDCHAR
STARTCHAR ntilde
ENCODING 241
SWIDTH 500 0
DWIDTH 7 0
BBX 6 10 1 0
BITMAP
6C
D8
00
F8
CC
CC
CC
CC
CC
CC
ENDCHAR
STARTCHAR ograve
ENCODING 242
SWIDTH 500 0
DWIDTH 7 0
BBX 6 10 1 0
BITMAP
60
30
00
78
CC
CC
CC
CC
CC
78
ENDCHAR
STARTCHAR oacute
ENCODING 243
SWIDTH 500 0
DWIDTH 7 0
BBX 6 10 1 0
BITMAP
18
30
00
78
CC
CC
CC
CC
CC
78
ENDCHAR
STARTCHAR ocircumflex
ENCODING 244
SWIDTH 500 0
DWIDTH 7 0
BBX 6 10 1 0
BITMAP
30
48
00
78
CC
CC
CC
CC
CC
78
ENDCHAR
STARTCHAR otilde
ENCODING 245
SWIDTH 500 0
DWIDTH 7 0
BBX 6 10 1 0
BITMAP
6C
D8
00
78
CC
CC
CC
CC
CC
78
ENDCHAR
STARTCHAR odieresis
ENCODING 246
SWIDTH 500 0
DWIDTH 7 0
BBX 6 10 1 0
BITMAP
48
48
00
78
CC
CC
CC
CC
CC
78
ENDCHAR
STARTCHAR divide
ENCODING 247
SWIDTH 466 0
DWIDTH 7 0
BBX 6 7 1 1
BITMAP
30
30
00
FC
00
30
30
ENDCHAR
STARTCHAR oslash
ENCODING 248
SWIDTH 466 0
DWIDTH 7 0
BBX 6 9 1 -1
BITMAP
04
7C
C8
DC
B4
EC
4C
F8
80
ENDCHAR
STARTCHAR ugrave
ENCODING 249
SWIDTH 500 0
DWIDTH 7 0
BBX 6 10 1 0
BITMAP
60
30
00
CC
CC
CC
CC
CC
CC
7C
ENDCHAR
STARTCHAR uacute
ENCODING 250
SWIDTH 500 0
DWIDTH 7 0
BBX 6 10 1 0
BITMAP
18
30
00
CC
CC
CC
CC
CC
CC
7C
ENDCHAR
STARTCHAR ucircumflex
ENCODING 251
SWIDTH 500 0
DWIDTH 7 0
BBX 6 10 1 0
BITMAP
30
48
00
CC
CC
CC
CC
CC
CC
7C
ENDCHAR
STARTCHAR udieresis
ENCODING 252
SWIDTH 500 0
DWIDTH 7 0
BBX 6 10 1 0
BITMAP
48
48
00
CC
CC
CC
CC
CC
CC
7C
ENDCHAR
STARTCHAR yacute
ENCODING 253
SWIDTH 500 0
DWIDTH 7 0
BBX 6 13 1 -3
BITMAP
18
30
00
CC
CC
CC
CC
CC
CC
7C
0C
0C
78
ENDCHAR
STARTCHAR thorn
ENCODING 254
SWIDTH 466 0
DWIDTH 7 0
BBX 6 13 1 -3
BITMAP
C0
C0
C0
F8
CC
CC
CC
CC
CC
F8
C0
C0
C0
ENDCHAR
STARTCHAR ydieresis
ENCODING 255
SWIDTH 500 0
DWIDTH 7 0
BBX 6 13 1 -3
BITMAP
48
48
00
CC
CC
CC
CC
CC
CC
7C
0C
0C
78
ENDCHAR
STARTCHAR dotlessi
ENCODING 305
SWIDTH 466 0
DWIDTH 7 0
BBX 4 7 2 0
BITMAP
E0
60
60
60
60
60
70
ENDCHAR
STARTCHAR gravecomb
ENCODING 768
SWIDTH 0 0
DWIDTH 0 0
BBX 3 2 -5 10
BITMAP
C0
60
ENDCHAR
STARTCHAR acutecomb
ENCODING 769
SWIDTH 0 0
DWIDTH 0 0
BBX 3 2 -4 10
BITMAP
60
C0
ENDCHAR
STARTCHAR uni0302
ENCODING 770
SWIDTH 0 0
DWIDTH 0 0
BBX 4 2 -5 10
BITMAP
60
90
ENDCHAR
STARTCHAR tildecomb
ENCODING 771
SWIDTH 0 0
DWIDTH 0 0
BBX 6 2 -6 10
BITMAP
6C
D8
ENDCHAR
STARTCHAR uni0308
ENCODING 776
SWIDTH 0 0
DWIDTH 0 0
BBX 4 2 -5 10
BITMAP
90
90
ENDCHAR
STARTCHAR uni030A
ENCODING 778
SWIDTH 0 0
DWIDTH 0 0
BBX 4 4 -5 8
BITMAP
60
90
90
60
ENDCHAR
STARTCHAR uni0327
ENCODING 807
SWIDTH 0 0
DWIDTH 0 0
BBX 4 3 -5 -3
BITMAP
60
30
E0
ENDCHAR
STARTCHAR lambda
ENCODING 955
SWIDTH 1000 0
DWIDTH 7 0
BBX 6 9 1 0
BITMAP
E0
20
30
10
30
78
48
CC
84
ENDCHAR
STARTCHAR uni2010
ENCODING 8208
SWIDTH 466 0
DWIDTH 7 0
BBX 4 1 2 4
BITMAP
F0
ENDCHAR
STARTCHAR uni2011
ENCODING 8209
SWIDTH 466 0
DWIDTH 7 0
BBX 4 1 2 4
BITMAP
F0
ENDCHAR
STARTCHAR figuredash
ENCODING 8210
SWIDTH 466 0
DWIDTH 7 0
BBX 5 1 1 4
BITMAP
F8
ENDCHAR
STARTCHAR endash
ENCODING 8211
SWIDTH 466 0
DWIDTH 7 0
BBX 5 1 1 4
BITMAP
F8
ENDCHAR
STARTCHAR emdash
ENCODING 8212
SWIDTH 466 0
DWIDTH 7 0
BBX 7 1 0 4
BITMAP
FE
ENDCHAR
STARTCHAR uni2015
ENCODING 8213
SWIDTH 466 0
DWIDTH 7 0
BBX 7 1 0 4
BITMAP
FE
ENDCHAR
STARTCHAR quoteleft
ENCODING 8216
SWIDTH 466 0
DWIDTH 7 0
BBX 3 4 3 6
BITMAP
60
C0
C0
E0
ENDCHAR
STARTCHAR quoteright
ENCODING 8217
SWIDTH 466 0
DWIDTH 7 0
BBX 3 4 2 6
BITMAP
E0
60
60
C0
ENDCHAR
STARTCHAR quotesinglbase
ENCODING 8218
SWIDTH 466 0
DWIDTH 7 0
BBX 3 4 2 -2
BITMAP
E0
60
60
C0
ENDCHAR
STARTCHAR quotereversed
ENCODING 8219
SWIDTH 466 0
DWIDTH 7 0
BBX 3 4 3 6
BITMAP
E0
C0
C0
60
ENDCHAR
STARTCHAR quotedblleft
ENCODING 8220
SWIDTH 466 0
DWIDTH 7 0
BBX 6 4 1 6
BITMAP
6C
D8
D8
FC
ENDCHAR
STARTCHAR quotedblright
ENCODING 8221
SWIDTH 466 0
DWIDTH 7 0
BBX 6 4 1 6
BITMAP
FC
6C
6C
D8
ENDCHAR
STARTCHAR quotedblbase
ENCODING 8222
SWIDTH 466 0
DWIDTH 7 0
BBX 6 4 1 -2
BITMAP
FC
6C
6C
D8
ENDCHAR
STARTCHAR uni201F
ENCODING 8223
SWIDTH 466 0
DWIDTH 7 0
BBX 6 4 1 6
BITMAP
FC
D8
D8
6C
ENDCHAR
STARTCHAR dagger
ENCODING 8224
SWIDTH 466 0
DWIDTH 7 0
BBX 6 10 1 -1
BITMAP
30
30
30
FC
30
30
30
30
30
30
ENDCHAR
STARTCHAR daggerdbl
ENCODING 8225
SWIDTH 466 0
DWIDTH 7 0
BBX 6 10 1 -1
BITMAP
30
30
30
FC
30
30
FC
30
30
30
ENDCHAR
STARTCHAR bullet
ENCODING 8226
SWIDTH 466 0
DWIDTH 7 0
BBX 5 4 2 3
BITMAP
70
F8
F8
70
ENDCHAR
STARTCHAR onedotenleader
ENCODING 8228
SWIDTH 466 0
DWIDTH 7 0
BBX 2 2 3 0
BITMAP
C0
C0
ENDCHAR
STARTCHAR twodotenleader
ENCODING 8229
SWIDTH 466 0
DWIDTH 7 0
BBX 5 2 2 0
BITMAP
D8
D8
ENDCHAR
STARTCHAR ellipsis
ENCODING 8230
SWIDTH 466 0
DWIDTH 7 0
BBX 6 2 1 0
BITMAP
D4
D4
ENDCHAR
STARTCHAR perthousand
ENCODING 8240
SWIDTH 466 0
DWIDTH 7 0
BBX 6 9 1 0
BITMAP
40
E0
48
10
20
40
A8
7C
28
ENDCHAR
STARTCHAR guilsinglleft
ENCODING 8249
SWIDTH 466 0
DWIDTH 7 0
BBX 4 5 2 1
BITMAP
30
60
C0
60
30
ENDCHAR
STARTCHAR guilsinglright
ENCODING 8250
SWIDTH 466 0
DWIDTH 7 0
BBX 4 5 2 1
BITMAP
C0
60
30
60
C0
ENDCHAR
STARTCHAR uni203B
ENCODING 8251
SWIDTH 466 0
DWIDTH 7 0
BBX 6 7 1 1
BITMAP
30
CC
78
B4
78
CC
30
ENDCHAR
STARTCHAR uni203D
ENCODING 8253
SWIDTH 466 0
DWIDTH 7 0
BBX 6 9 1 0
BITMAP
78
B4
B4
38
30
30
00
30
30
ENDCHAR
STARTCHAR uni25CC
ENCODING 9676
SWIDTH 466 0
DWIDTH 7 0
BBX 7 7 0 1
BITMAP
10
44
00
82
00
44
10
ENDCHAR
STARTCHAR uni27E6
ENCODING 10214
SWIDTH 500 0
DWIDTH 7 0
BBX 6 11 1 -1
BITMAP
FC
D0
D0
D0
D0
D0
D0
D0
D0
D0
FC
ENDCHAR
STARTCHAR uni27E7
ENCODING 10215
SWIDTH 500 0
DWIDTH 7 0
BBX 6 11 1 -1
BITMAP
FC
2C
2C
2C
2C
2C
2C
2C
2C
2C
FC
ENDCHAR
STARTCHAR uni2801
ENCODING 10241
SWIDTH 466 0
DWIDTH 7 0
BBX 3 3 0 7
BITMAP
E0
E0
E0
ENDCHAR
STARTCHAR uni2802
ENCODING 10242
SWIDTH 466 0
DWIDTH 7 0
BBX 3 3 0 3
BITMAP
E0
E0
E0
ENDCHAR
STARTCHAR uni2803
ENCODING 10243
SWIDTH 466 0
DWIDTH 7 0
BBX 3 7 0 3
BITMAP
E0
E0
E0
00
E0
E0
E0
ENDCHAR
STARTCHAR uni2804
ENCODING 10244
SWIDTH 466 0
DWIDTH 7 0
BBX 3 3 0 -1
BITMAP
E0
E0
E0
ENDCHAR
STARTCHAR uni2805
ENCODING 10245
SWIDTH 466 0
DWIDTH 7 0
BBX 3 11 0 -1
BITMAP
E0
E0
E0
00
00
00
00
00
E0
E0
E0
ENDCHAR
STARTCHAR uni2806
ENCODING 10246
SWIDTH 466 0
DWIDTH 7 0
BBX 3 7 0 -1
BITMAP
E0
E0
E0
00
E0
E0
E0
ENDCHAR
STARTCHAR uni2807
ENCODING 10247
SWIDTH 466 0
DWIDTH 7 0
BBX 3 11 0 -1
BITMAP
E0
E0
E0
00
E0
E0
E0
00
E0
E0
E0
ENDCHAR
STARTCHAR uni2808
ENCODING 10248
SWIDTH 466 0
DWIDTH 7 0
BBX 3 3 4 7
BITMAP
E0
E0
E0
ENDCHAR
STARTCHAR uni2809
ENCODING 10249
SWIDTH 466 0
DWIDTH 7 0
BBX 7 3 0 7
BITMAP
EE
EE
EE
ENDCHAR
STARTCHAR uni280A
ENCODING 10250
SWIDTH 466 0
DWIDTH 7 0
BBX 7 7 0 3
BITMAP
0E
0E
0E
00
E0
E0
E0
ENDCHAR
STARTCHAR uni280B
ENCODING 10251
SWIDTH 466 0
DWIDTH 7 0
BBX 7 7 0 3
BITMAP
EE
EE
EE
00
E0
E0
E0
ENDCHAR
STARTCHAR uni280C
ENCODING 10252
SWIDTH 466 0
DWIDTH 7 0
BBX 7 11 0 -1
BITMAP
0E
0E
0E
00
00
00
00
00
E0
E0
E0
ENDCHAR
STARTCHAR uni280D
ENCODING 10253
SWIDTH 466 0
DWIDTH 7 0
BBX 7 11 0 -1
BITMAP
EE
EE
EE
00
00
00
00
00
E0
E0
E0
ENDCHAR
STARTCHAR uni280E
ENCODING 10254
SWIDTH 466 0
DWIDTH 7 0
BBX 7 11 0 -1
BITMAP
0E
0E
0E
00
E0
E0
E0
00
E0
E0
E0
ENDCHAR
STARTCHAR uni280F
ENCODING 10255
SWIDTH 466 0
DWIDTH 7 0
BBX 7 11 0 -1
BITMAP
EE
EE
EE
00
E0
E0
E0
00
E0
E0
E0
ENDCHAR
STARTCHAR uni2810
ENCODING 10256
SWIDTH 466 0
DWIDTH 7 0
BBX 3 3 4 3
BITMAP
E0
E0
E0
ENDCHAR
STARTCHAR uni2811
ENCODING 10257
SWIDTH 466 0
DWIDTH 7 0
BBX 7 7 0 3
BITMAP
E0
E0
E0
00
0E
0E
0E
ENDCHAR
STARTCHAR uni2812
ENCODING 10258
SWIDTH 466 0
DWIDTH 7 0
BBX 7 3 0 3
BITMAP
EE
EE
EE
ENDCHAR
STARTCHAR uni2813
ENCODING 10259
SWIDTH 466 0
DWIDTH 7 0
BBX 7 7 0 3
BITMAP
E0
E0
E0
00
EE
EE
EE
ENDCHAR
STARTCHAR uni2814
ENCODING 10260
SWIDTH 466 0
DWIDTH 7 0
BBX 7 7 0 -1
BITMAP
0E
0E
0E
00
E0
E0
E0
ENDCHAR
STARTCHAR uni2815
ENCODING 10261
SWIDTH 466 0
DWIDTH 7 0
BBX 7 11 0 -1
BITMAP
E0
E0
E0
00
0E
0E
0E
00
E0
E0
E0
ENDCHAR
STARTCHAR uni2816
ENCODING 10262
SWIDTH 466 0
DWIDTH 7 0
BBX 7 7 0 -1
BITMAP
EE
EE
EE
00
E0
E0
E0
ENDCHAR
STARTCHAR uni2817
ENCODING 10263
SWIDTH 466 0
DWIDTH 7 0
BBX 7 11 0 -1
BITMAP
E0
E0
E0
00
EE
EE
EE
00
E0
E0
E0
ENDCHAR
STARTCHAR uni2818
ENCODING 10264
SWIDTH 466 0
DWIDTH 7 0
BBX 3 7 4 3
BITMAP
E0
E0
E0
00
E0
E0
E0
ENDCHAR
STARTCHAR uni2819
ENCODING 10265
SWIDTH 466 0
DWIDTH 7 0
BBX 7 7 0 3
BITMAP
EE
EE
EE
00
0E
0E
0E
ENDCHAR
STARTCHAR uni281A
ENCODING 10266
SWIDTH 466 0
DWIDTH 7 0
BBX 7 7 0 3
BITMAP
0E
0E
0E
00
EE
EE
EE
ENDCHAR
STARTCHAR uni281B
ENCODING 10267
SWIDTH 466 0
DWIDTH 7 0
BBX 7 7 0 3
BITMAP
EE
EE
EE
00
EE
EE
EE
ENDCHAR
STARTCHAR uni281C
ENCODING 10268
SWIDTH 466 0
DWIDTH 7 0
BBX 7 11 0 -1
BITMAP
0E
0E
0E
00
0E
0E
0E
00
E0
E0
E0
ENDCHAR
STARTCHAR uni281D
ENCODING 10269
SWIDTH 466 0
DWIDTH 7 0
BBX 7 11 0 -1
BITMAP
EE
EE
EE
00
0E
0E
0E
00
E0
E0
E0
ENDCHAR
STARTCHAR uni281E
ENCODING 10270
SWIDTH 466 0
DWIDTH 7 0
BBX 7 11 0 -1
BITMAP
0E
0E
0E
00
EE
EE
EE
00
E0
E0
E0
ENDCHAR
STARTCHAR uni281F
ENCODING 10271
SWIDTH 466 0
DWIDTH 7 0
BBX 7 11 0 -1
BITMAP
EE
EE
EE
00
EE
EE
EE
00
E0
E0
E0
ENDCHAR
STARTCHAR uni2820
ENCODING 10272
SWIDTH 466 0
DWIDTH 7 0
BBX 3 3 4 -1
BITMAP
E0
E0
E0
ENDCHAR
STARTCHAR uni2821
ENCODING 10273
SWIDTH 466 0
DWIDTH 7 0
BBX 7 11 0 -1
BITMAP
E0
E0
E0
00
00
00
00
00
0E
0E
0E
ENDCHAR
STARTCHAR uni2822
ENCODING 10274
SWIDTH 466 0
DWIDTH 7 0
BBX 7 7 0 -1
BITMAP
E0
E0
E0
00
0E
0E
0E
ENDCHAR
STARTCHAR uni2823
ENCODING 10275
SWIDTH 466 0
DWIDTH 7 0
BBX 7 11 0 -1
BITMAP
E0
E0
E0
00
E0
E0
E0
00
0E
0E
0E
ENDCHAR
STARTCHAR uni2824
ENCODING 10276
SWIDTH 466 0
DWIDTH 7 0
BBX 7 3 0 -1
BITMAP
EE
EE
EE
ENDCHAR
STARTCHAR uni2825
ENCODING 10277
SWIDTH 466 0
DWIDTH 7 0
BBX 7 11 0 -1
BITMAP
E0
E0
E0
00
00
00
00
00
EE
EE
EE
ENDCHAR
STARTCHAR uni2826
ENCODING 10278
SWIDTH 466 0
DWIDTH 7 0
BBX 7 7 0 -1
BITMAP
E0
E0
E0
00
EE
EE
EE
ENDCHAR
STARTCHAR uni2827
ENCODING 10279
SWIDTH 466 0
DWIDTH 7 0
BBX 7 11 0 -1
BITMAP
E0
E0
E0
00
E0
E0
E0
00
EE
EE
EE
ENDCHAR
STARTCHAR uni2828
ENCODING 10280
SWIDTH 466 0
DWIDTH 7 0
BBX 3 11 4 -1
BITMAP
E0
E0
E0
00
00
00
00
00
E0
E0
E0
ENDCHAR
STARTCHAR uni2829
ENCODING 10281
SWIDTH 466 0
DWIDTH 7 0
BBX 7 11 0 -1
BITMAP
EE
EE
EE
00
00
00
00
00
0E
0E
0E
ENDCHAR
STARTCHAR uni282A
ENCODING 10282
SWIDTH 466 0
DWIDTH 7 0
BBX 7 11 0 -1
BITMAP
0E
0E
0E
00
E0
E0
E0
00
0E
0E
0E
ENDCHAR
STARTCHAR uni282B
ENCODING 10283
SWIDTH 466 0
DWIDTH 7 0
BBX 7 11 0 -1
BITMAP
EE
EE
EE
00
E0
E0
E0
00
0E
0E
0E
ENDCHAR
STARTCHAR uni282C
ENCODING 10284
SWIDTH 466 0
DWIDTH 7 0
BBX 7 11 0 -1
BITMAP
0E
0E
0E
00
00
00
00
00
EE
EE
EE
ENDCHAR
STARTCHAR uni282D
ENCODING 10285
SWIDTH 466 0
DWIDTH 7 0
BBX 7 11 0 -1
BITMAP
EE
EE
EE
00
00
00
00
00
EE
EE
EE
ENDCHAR
STARTCHAR uni282E
ENCODING 10286
SWIDTH 466 0
DWIDTH 7 0
BBX 7 11 0 -1
BITMAP
0E
0E
0E
00
E0
E0
E0
00
EE
EE
EE
ENDCHAR
STARTCHAR uni282F
ENCODING 10287
SWIDTH 466 0
DWIDTH 7 0
BBX 7 11 0 -1
BITMAP
EE
EE
EE
00
E0
E0
E0
00
EE
EE
EE
ENDCHAR
STARTCHAR uni2830
ENCODING 10288
SWIDTH 466 0
DWIDTH 7 0
BBX 3 7 4 -1
BITMAP
E0
E0
E0
00
E0
E0
E0
ENDCHAR
STARTCHAR uni2831
ENCODING 10289
SWIDTH 466 0
DWIDTH 7 0
BBX 7 11 0 -1
BITMAP
E0
E0
E0
00
0E
0E
0E
00
0E
0E
0E
ENDCHAR
STARTCHAR uni2832
ENCODING 10290
SWIDTH 466 0
DWIDTH 7 0
BBX 7 7 0 -1
BITMAP
EE
EE
EE
00
0E
0E
0E
ENDCHAR
STARTCHAR uni2833
ENCODING 10291
SWIDTH 466 0
DWIDTH 7 0
BBX 7 11 0 -1
BITMAP
E0
E0
E0
00
EE
EE
EE
00
0E
0E
0E
ENDCHAR
STARTCHAR uni2834
ENCODING 10292
SWIDTH 466 0
DWIDTH 7 0
BBX 7 7 0 -1
BITMAP
0E
0E
0E
00
EE
EE
EE
ENDCHAR
STARTCHAR uni2835
ENCODING 10293
SWIDTH 466 0
DWIDTH 7 0
BBX 7 11 0 -1
BITMAP
E0
E0
E0
00
0E
0E
0E
00
EE
EE
EE
ENDCHAR
STARTCHAR uni2836
ENCODING 10294
SWIDTH 466 0
DWIDTH 7 0
BBX 7 7 0 -1
BITMAP
EE
EE
EE
00
EE
EE
EE
ENDCHAR
STARTCHAR uni2837
ENCODING 10295
SWIDTH 466 0
DWIDTH 7 0
BBX 7 11 0 -1
BITMAP
E0
E0
E0
00
EE
EE
EE
00
EE
EE
EE
ENDCHAR
STARTCHAR uni2838
ENCODING 10296
SWIDTH 466 0
DWIDTH 7 0
BBX 3 11 4 -1
BITMAP
E0
E0
E0
00
E0
E0
E0
00
E0
E0
E0
ENDCHAR
STARTCHAR uni2839
ENCODING 10297
SWIDTH 466 0
DWIDTH 7 0
BBX 7 11 0 -1
BITMAP
EE
EE
EE
00
0E
0E
0E
00
0E
0E
0E
ENDCHAR
STARTCHAR uni283A
ENCODING 10298
SWIDTH 466 0
DWIDTH 7 0
BBX 7 11 0 -1
BITMAP
0E
0E
0E
00
EE
EE
EE
00
0E
0E
0E
ENDCHAR
STARTCHAR uni283B
ENCODING 10299
SWIDTH 466 0
DWIDTH 7 0
BBX 7 11 0 -1
BITMAP
EE
EE
EE
00
EE
EE
EE
00
0E
0E
0E
ENDCHAR
STARTCHAR uni283C
ENCODING 10300
SWIDTH 466 0
DWIDTH 7 0
BBX 7 11 0 -1
BITMAP
0E
0E
0E
00
0E
0E
0E
00
EE
EE
EE
ENDCHAR
STARTCHAR uni283D
ENCODING 10301
SWIDTH 466 0
DWIDTH 7 0
BBX 7 11 0 -1
BITMAP
EE
EE
EE
00
0E
0E
0E
00
EE
EE
EE
ENDCHAR
STARTCHAR uni283E
ENCODING 10302
SWIDTH 466 0
DWIDTH 7 0
BBX 7 11 0 -1
BITMAP
0E
0E
0E
00
EE
EE
EE
00
EE
EE
EE
ENDCHAR
STARTCHAR uni283F
ENCODING 10303
SWIDTH 466 0
DWIDTH 7 0
BBX 7 11 0 -1
BITMAP
EE
EE
EE
00
EE
EE
EE
00
EE
EE
EE
ENDCHAR
STARTCHAR uni2E28
ENCODING 11816
SWIDTH 466 0
DWIDTH 7 0
BBX 7 11 0 -1
BITMAP
36
6C
6C
D8
D8
D8
D8
D8
6C
6C
36
ENDCHAR
STARTCHAR uni2E29
ENCODING 11817
SWIDTH 466 0
DWIDTH 7 0
BBX 7 11 0 -1
BITMAP
D8
6C
6C
36
36
36
36
36
6C
6C
D8
ENDCHAR
ENDFONT
